<?xml version="1.0" encoding="UTF-8"?>
<svg xmlns="http://www.w3.org/2000/svg" width="116.743" height="50" viewBox="0 0 116.743 50">
  <g id="Group_2248" data-name="Group 2248" transform="translate(-154.251 -141.279)">
    <path id="Path_2963" data-name="Path 2963" d="M586.446,141.518l-9.491.027c-.012.245.011,16.24.011,16.24l.057,16.386a36.085,36.085,0,0,0,4.772,16.2l.239.148H593.44l-2-2.635a30.234,30.234,0,0,1-3.21-6.034,32.367,32.367,0,0,1-1.6-7.269c-.223-5.174-.208-10.563-.191-15.733l5.3-.005-.02-8.023-5.289.008Z" transform="translate(-332.789 -0.188)" fill="#9ea4a6"></path>
    <path id="Path_2964" data-name="Path 2964" d="M658.2,147.941l9.521-.026.009-6.625-9.545,0Z" transform="translate(-396.747 -0.009)" fill="#0d2b88"></path>
    <path id="Path_2965" data-name="Path 2965" d="M667.753,224.957l0-39.682H658.2l.031,39.68Z" transform="translate(-396.759 -34.637)" fill="#9ea4a6"></path>
    <path id="Path_2966" data-name="Path 2966" d="M154.28,190.406l9.619-.024,0-40.258a3.437,3.437,0,0,0,.659-.015h3.914a8,8,0,0,1,7.2,3.524,7.777,7.777,0,0,1,.182,8.459,8.215,8.215,0,0,1-7.784,3.961c-.387.043-1.187.033-1.187.033a42.732,42.732,0,0,0,7.692,24.286l12.108.009a31.154,31.154,0,0,1-9.1-16.184c-.044-.291-.135-.727.157-.965a20.252,20.252,0,0,0,4.881-3.8c.784-.86,1.329-1.917,2.16-2.679a.527.527,0,0,1,.09.533,21.509,21.509,0,0,0,6.629,18.353,21.036,21.036,0,0,0,35.368-14.581,26.358,26.358,0,0,1,.044-3.382l.1.05c1.983,3.65,5.179,6.929,4.781,11.612-.68,4.1-3.285,7.5-6.126,10.457-.148.191-.343.382-.345.575,3.721.048,7.248.045,11.019,0l.243-.094a19.313,19.313,0,0,0,4.884-11.681c.554-5.551-3.115-9.561-5.135-14.178-2.1-5.585,2.353-10.215,6.12-13.792v-.145l-11.163,0c-3.33,3.389-5.559,7.661-5.333,12.69,0,.145.044.388-.148.288A21.816,21.816,0,0,0,208.2,149.6a21.242,21.242,0,0,0-20.913,10.366c-.05.1-.2.191-.243.093a19.536,19.536,0,0,0-1.157-7.8,17.028,17.028,0,0,0-16.244-10.984l-15.394.049Zm55.1-30.98a11.46,11.46,0,0,1,5.917,17.28,11.458,11.458,0,1,1-5.917-17.28Z" fill="#9ea4a6"></path>
  </g>
</svg>
